HIERARCHY
ROOT Hips
{
  OFFSET 3.13124 94.3669 -3.18751
  CHANNELS  6 Xposition Yposition Zposition Zrotation Xrotation Yrotation
  JOINT LeftUpLeg
  {
    OFFSET 8.64259 1.95398 -2.38835
    CHANNELS 3 Zrotation Xrotation Yrotation
    JOINT LeftLeg
    {
      OFFSET 43.7702 0 0
      CHANNELS 3 Zrotation Xrotation Yrotation
      JOINT LeftFoot
      {
        OFFSET 40.6238 0 0
        CHANNELS 3 Zrotation Xrotation Yrotation
        JOINT LeftToeBase
        {
          OFFSET 12.7242 0 0
          CHANNELS 3 Zrotation Xrotation Yrotation
          End Site
          {
            OFFSET 0 0 0
          }
        }
      }
    }
  }
  JOINT RightUpLeg
  {
    OFFSET -8.2249 1.95398 -2.59336
    CHANNELS 3 Zrotation Xrotation Yrotation
    JOINT RightLeg
    {
      OFFSET 43.5653 0 0
      CHANNELS 3 Zrotation Xrotation Yrotation
      JOINT RightFoot
      {
        OFFSET 40.6238 0 0
        CHANNELS 3 Zrotation Xrotation Yrotation
        JOINT RightToeBase
        {
          OFFSET 12.7242 0 0
          CHANNELS 3 Zrotation Xrotation Yrotation
          End Site
          {
            OFFSET 0 0 0
          }
        }
      }
    }
  }
  JOINT Spine
  {
    OFFSET 0.165834 0.87714 6.61349
    CHANNELS 3 Zrotation Xrotation Yrotation
    JOINT Spine1
    {
      OFFSET 7.38962 1.71661e-005 0
      CHANNELS 3 Zrotation Xrotation Yrotation
      JOINT Spine2
      {
        OFFSET 11.9445 1.14441e-005 0
        CHANNELS 3 Zrotation Xrotation Yrotation
        JOINT Spine3
        {
          OFFSET 14.7254 4.19617e-005 0
          CHANNELS 3 Zrotation Xrotation Yrotation
          JOINT Spine4
          {
            OFFSET 10.9679 0 0
            CHANNELS 3 Zrotation Xrotation Yrotation
            JOINT RightShoulder
            {
              OFFSET 2.46616 -1.6653 3.69651
              CHANNELS 3 Zrotation Xrotation Yrotation
              JOINT RightArm
              {
                OFFSET 13.0012 0 0
                CHANNELS 3 Zrotation Xrotation Yrotation
                JOINT RightForeArm
                {
                  OFFSET 28.7848 1.52588e-005 0
                  CHANNELS 3 Zrotation Xrotation Yrotation
                  JOINT RightHand
                  {
                    OFFSET 26.5688 1.52588e-005 0
                    CHANNELS 3 Zrotation Xrotation Yrotation
                    End Site
                    {
                      OFFSET 0 0 0
                    }
                  }
                }
              }
            }
            JOINT LeftShoulder
            {
              OFFSET 2.38034 -1.29275 -3.75231
              CHANNELS 3 Zrotation Xrotation Yrotation
              JOINT LeftArm
              {
                OFFSET 16.3182 6.10352e-005 0
                CHANNELS 3 Zrotation Xrotation Yrotation
                JOINT LeftForeArm
                {
                  OFFSET 27.0901 0 0
                  CHANNELS 3 Zrotation Xrotation Yrotation
                  JOINT LeftHand
                  {
                    OFFSET 24.5451 1.52588e-005 0
                    CHANNELS 3 Zrotation Xrotation Yrotation
                    End Site
                    {
                      OFFSET 0 0 0
                    }
                  }
                }
              }
            }
            JOINT Neck
            {
              OFFSET 5.0226 -0.0266342 0
              CHANNELS 3 Zrotation Xrotation Yrotation
              JOINT Head
              {
                OFFSET 6.69363 2.86102e-005 0
                CHANNELS 3 Zrotation Xrotation Yrotation
                End Site
                {
                  OFFSET 0 0 0
                }
              }
            }
          }
        }
      }
    }
  }
}
MOTION
Frames:	15
Frame Time:	0.0333333
-17.2247 96.6846 71.5793 91.4622 -71.7843 100.183 175.798 10.3651 86.0456 -4.65142 -22.7032 -1.45081 22.7517 -8.37465 -11.6473 28.7808 2.70881e-006 -6.13053e-006 -178.15 7.25387 100.516 -35.9066 22.3144 1.99036 16.654 33.0457 44.4431 28.7808 1.42272e-005 1.69058e-005 1.72803 7.87125 -97.0058 10.9348 0.18141 -8.34247 -0.76304 -0.184897 -8.34023 -23.1005 2.66095 -7.91309 -3.08784 2.66094 -7.91314 -115.458 -60.5104 70.274 44.0148 -20.9672 -51.1709 -168.22 -24.0277 -147.953 -44.1845 20.4256 -53.8338 -79.1611 -18.2457 93.7102 -20.1979 12.6373 -21.9329 -28.4929 16.8509 -121.042 -17.3606 -1.58994 6.88999 62.7665 25.9442 10.9964 -26.5243 18.5417 -11.0779 
-13.935 97.0294 69.8329 86.3005 -70.3657 92.3779 174.547 13.3367 83.9715 -4.78117 -25.0571 -1.61917 8.65821 -17.8613 -29.5592 28.7808 2.70881e-006 -6.13053e-006 -175.415 2.87855 102.292 -20.151 22.7535 1.78235 16.8897 34.7003 46.2482 28.7808 1.42272e-005 1.69058e-005 1.88572 7.54423 -96.8291 11.5288 0.287226 -7.38886 -0.163089 -0.0373634 -7.39433 -22.5441 2.48994 -6.96506 -2.53149 2.48994 -6.96507 -118.269 -54.2792 70.1451 44.3608 -22.7422 -44.7645 -163.168 -22.6122 -137.936 -37.4846 18.49 -57.1529 -78.8634 -19.6938 94.4962 -20.3235 4.59098 -19.9577 -33.5357 20.5147 -120.55 -28.1876 -3.90223 12.0272 65.6253 26.3157 12.3565 -28.8768 18.284 -13.5579 
-10.3948 96.9394 67.2973 82.2998 -69.496 83.2788 173.848 15.9004 79.8878 -4.35626 -17.1815 -0.992621 8.1143 -24.4789 -39.6788 28.7808 2.70881e-006 -6.13053e-006 -175.649 0.680518 98.5791 -11.2586 22.1896 1.55818 14.4296 37.0432 51.1145 28.7808 1.42272e-005 1.69058e-005 1.69021 7.44599 -94.8916 11.872 0.528588 -6.42724 0.185395 0.245848 -6.44418 -22.2395 2.42106 -5.97441 -2.22691 2.42105 -5.9744 -118.769 -50.0271 71.1644 44.5151 -23.6579 -40.6596 -160.739 -20.8616 -132.227 -33.0873 16.2019 -57.263 -78.9123 -23.4127 94.5797 -20.6486 -7.01327 -22.5016 -25.6434 12.5855 -117.698 -56.2341 -7.79585 11.0821 63.2739 29.026 19.0324 -26.822 17.5746 -19.3587 
-6.74469 96.8693 64.3872 83.7679 -69.9603 79.8982 174.039 16.2537 77.9034 -4.79213 -17.2343 -0.987302 11.2205 -22.5538 -34.7907 28.7808 2.70881e-006 -6.13053e-006 -176.483 -2.42806 94.1129 -4.79304 22.9556 1.45191 17.0424 33.8022 45.1333 28.7808 1.42272e-005 1.69058e-005 1.51298 7.7188 -92.8137 11.4318 1.14518 -5.99573 -0.252687 0.879719 -6.0403 -22.6985 2.89823 -5.37617 -2.6859 2.89823 -5.37621 -117.358 -47.27 72.9992 43.3368 -24.5088 -39.035 -158.15 -19.0724 -126.519 -29.0221 13.9634 -56.8538 -78.5789 -27.5011 95.444 -20.3477 -13.2627 -31.57 -10.5209 3.44673 -114.04 -81.5367 -1.88044 -2.08508 60.6091 31.5719 26.3659 -25.6596 16.3474 -23.6188 
-3.04215 96.1423 61.456 88.7107 -71.5859 81.3085 175.214 16.8455 78.1155 -11.071 -28.883 -1.98123 27.7609 -18.2475 -21.2561 28.7808 2.70881e-006 -6.13053e-006 -177.405 -3.8283 91.3063 -4.56495 22.3908 1.40051 32.7174 26.4271 27.2594 28.7808 1.42272e-005 1.69058e-005 0.959016 7.71388 -91.4627 11.4813 0.645834 -5.66807 -0.201881 0.396146 -5.69092 -22.6515 2.31721 -5.21426 -2.63884 2.31721 -5.21426 -116.981 -45.1975 73.8886 43.2703 -21.1715 -33.5298 -158.752 -17.1612 -124.523 -26.4391 12.0176 -54.521 -79.6445 -33.2941 93.5877 -20.0458 -17.7676 -36.4103 12.1182 -3.75202 -104.922 -93.0412 16.8302 -21.1708 43.8961 32.4618 37.7979 -14.8572 14.6671 -29.6318 
0.354366 94.9861 58.8683 94.3683 -73.0968 85.6129 176.883 14.4574 82.2727 -13.0673 -30.0978 -2.10209 41.7659 -15.3924 -14.0663 28.7808 2.70881e-006 -6.13053e-006 -178.693 -5.95607 89.2605 -4.49626 20.895 1.2971 52.1039 21.3247 15.527 28.7808 1.42272e-005 1.69058e-005 0.795476 7.93364 -91.3208 11.0155 0.385643 -5.44863 -0.66702 0.1458 -5.46032 -23.1194 2.00334 -5.08258 -3.10677 2.00334 -5.08258 -115.613 -43.9871 75.136 43.1483 -19.6646 -28.788 -157.956 -15.4801 -121.095 -23.3682 10.0542 -52.441 -79.4171 -35.7704 94.1713 -20.0904 -16.9227 -39.3273 26.258 -4.70549 -99.811 -75.7168 26.4137 -39.4761 38.0017 32.5778 41.7882 -11.6499 14.3388 -31.0773 
3.31344 93.5671 56.0965 92.8491 -73.8046 84.5355 179.722 17.3161 88.5214 -20.9895 -22.0165 -1.42667 45.9177 -19.6011 -16.3707 28.7808 2.70881e-006 -6.13053e-006 -179.621 -5.17811 88.0411 -4.41582 19.1555 1.17569 63.8238 18.1479 10.3592 28.7808 1.42272e-005 1.69058e-005 0.557859 7.97395 -91.1558 10.929 0.0856209 -5.14121 -0.752053 -0.140244 -5.1394 -23.2118 1.62337 -4.88047 -3.19915 1.62337 -4.8805 -112.465 -43.6133 77.2316 42.7244 -18.7968 -22.8842 -153.448 -13.6614 -114.252 -18.0437 7.38657 -50.9469 -78.2832 -34.7318 96.1811 -20.1565 -14.569 -45.1813 36.8947 -0.168799 -90.4937 -49.0172 27.1149 -62.9218 39.2137 32.3238 37.2672 -12.1466 15.7918 -27.7323 
6.6343 91.4715 53.7066 86.5141 -75.2407 81.0402 -178.97 21.3533 97.0495 -28.4326 -14.6961 -0.757588 54.0278 -17.4622 -12.3439 28.7808 2.70881e-006 -6.13053e-006 179.529 -3.03371 88.3711 -4.32473 15.3118 0.925695 73.0428 16.6779 7.62137 28.7808 1.42272e-005 1.69058e-005 0.565326 7.97378 -92.4078 10.901 -0.0653951 -5.11545 -0.780081 -0.290452 -5.1079 -23.2388 1.4779 -4.90078 -3.22617 1.4779 -4.9008 -105.539 -48.6664 80.4362 39.1064 -17.6018 -18.2771 -138.742 -7.60441 -99.4734 -6.29269 2.39997 -49.9192 -76.4559 -34.1171 99.5604 -20.2992 -11.937 -52.0111 39.2921 4.07343 -85.5473 -36.3378 23.0951 -72.2291 42.7683 33.264 32.6471 -13.4956 17.9829 -25.9794 
10.2871 89.6674 51.5663 80.6318 -77.5842 78.3542 -178.975 23.4463 105.229 -32.3897 -21.5297 -1.09362 53.202 -10.6957 -7.86402 28.7808 2.70881e-006 -6.13053e-006 179.391 2.6635 88.584 -12.5705 13.6946 0.828141 81.9358 14.5049 5.10695 28.7808 1.42272e-005 1.69058e-005 0.662109 8.1096 -93.0641 10.6219 -0.0972657 -5.36105 -1.06015 -0.334155 -5.35154 -23.5113 1.51855 -5.14429 -3.49869 1.51856 -5.1443 -127.066 -70.1932 57.2586 40.0279 -35.0092 -14.0508 -110.715 6.46433 -90.6875 16.206 -4.11739 -32.679 -74.7159 -33.1209 102.863 -20.3946 -9.32693 -55.386 34.39 3.7935 -84.6166 -33.6795 21.0156 -71.7352 51.084 34.3243 25.2677 -18.6656 21.2885 -23.3863 
14.0382 88.1245 49.5812 78.5331 -79.0189 78.0643 -178.494 23.099 111.104 -33.0915 -32.1138 -1.9686 52.0353 -5.46962 -4.33838 28.7808 2.70881e-006 -6.13053e-006 179.453 7.70163 88.7554 -19.9758 24.5287 1.56342 88.8848 9.02737 2.25175 28.7808 1.42272e-005 1.69058e-005 0.522602 8.26011 -93.0323 10.3077 -0.350624 -5.43582 -1.37446 -0.58918 -5.41508 -23.8218 1.297 -5.29127 -3.80917 1.29698 -5.29129 139.849 -61.1396 -32.1022 21.9686 -60.7006 -48.6123 -75.2714 9.09964 -95.6314 30.0843 2.32618 3.83924 -74.3966 -31.0955 103.628 -20.3561 -7.68843 -53.6514 27.1281 0.467119 -88.8817 -38.1369 20.4856 -63.2905 57.9863 33.2004 17.0899 -23.1529 23.4299 -18.6527 
18.1316 87.5488 48.046 84.0464 -77.7225 85.2264 -174.806 19.1849 114.931 -23.3965 -37.0226 -2.6418 51.4944 -1.01246 -1.18055 28.7808 2.70881e-006 -6.13053e-006 179.124 8.47989 87.3388 -23.0095 25.5728 1.60735 88.1609 12.8361 3.55353 28.7808 1.42272e-005 1.69058e-005 0.133595 8.47887 -92.9531 9.85307 -1.14851 -5.59727 -1.82927 -1.39321 -5.54396 -24.2678 0.582704 -5.67835 -4.25522 0.582695 -5.67837 124.699 -50.467 -47.7054 7.86739 -55.4853 -70.5197 -57.566 8.33284 -98.7885 26.2852 6.1226 20.0329 -75.0122 -29.1853 102.568 -20.3689 -5.51771 -50.0201 13.1957 -1.63761 -94.112 -47.4342 20.8529 -52.3937 64.8672 31.0983 9.42761 -28.6238 24.9722 -13.8454 
22.8289 87.4699 47.1741 89.1747 -72.0847 92.1704 -168.746 14.4745 115.741 -6.63467 -44.8467 -3.81659 49.7112 3.41122 2.02829 28.7808 2.70881e-006 -6.13053e-006 178.386 2.97653 86.2954 -16.4275 30.7988 2.12157 84.7436 15.0716 4.81229 28.7808 1.42272e-005 1.69058e-005 -0.448748 8.69582 -93.1868 9.39425 -2.35581 -5.27703 -2.28467 -2.5855 -5.16851 -24.7372 -0.663916 -5.73948 -4.72452 -0.663911 -5.73949 124.799 -54.595 -49.138 10.6164 -51.2214 -62.6062 -52.5912 11.9548 -103.002 30.8338 7.93792 22.6853 -75.3163 -22.4734 102.491 -20.241 -2.14643 -50.733 3.21956 -1.38441 -95.4427 -50.6319 20.0259 -47.5605 76.0182 23.0896 -4.13894 -39.6771 25.6281 -4.84569 
28.227 86.8534 46.4658 87.6752 -65.0176 92.3663 -169.678 17.4487 115.745 -9.27306 -57.9458 -6.50082 52.8791 2.91957 1.67662 28.7808 2.70881e-006 -6.13053e-006 177.276 -2.33095 84.9754 -9.69224 36.3952 2.70147 79.8698 17.1214 6.42986 28.7808 1.42272e-005 1.69058e-005 -0.78321 8.60633 -93.439 9.60427 -3.28725 -5.13261 -2.07221 -3.50973 -4.9853 -24.5365 -1.59558 -5.88187 -4.52388 -1.5956 -5.88192 129.66 -59.8079 -44.5118 18.735 -49.7122 -45.4526 -54.9929 15.6612 -104.934 32.4999 6.02258 15.0641 -75.6979 -16.0603 102.064 -20.2776 2.85988 -55.5743 1.19437 -0.855691 -90.3413 -48.4307 20.5138 -50.7087 82.3582 14.7532 -12.9411 -50.973 23.9467 3.3348 
33.6498 86.722 45.501 87.5198 -57.2067 90.7832 -172.078 17.6583 110.16 -13.9345 -64.881 -8.96434 52.8684 0.446693 0.00702511 28.7808 2.70881e-006 -6.13053e-006 175.425 -6.73469 80.4982 -6.40227 44.2283 3.64251 74.941 18.9327 8.28591 28.7808 1.42272e-005 1.69058e-005 -1.28836 8.21379 -92.3248 10.294 -3.95499 -5.31892 -1.38122 -4.18483 -5.14145 -23.8471 -2.17818 -6.24962 -3.83448 -2.1782 -6.24966 133.051 -60.5207 -40.3937 24.3724 -45.8964 -32.2664 -55.3478 18.7506 -106.987 33.5193 4.67844 10.1513 -77.9613 -15.3628 96.5213 -21.0931 5.30857 -56.7505 5.4934 -0.613313 -84.4235 -42.8623 20.081 -55.8735 81.7569 13.7796 -12.2524 -52.3206 21.6579 4.42846 
39.5517 87.2156 44.1041 89.3244 -49.973 89.5936 -176.007 20.3166 103.569 -19.8469 -58.668 -6.66809 52.9479 -1.0039 -0.934586 28.7808 2.70881e-006 -6.13053e-006 171.442 -9.65386 74.4344 -6.94006 47.2858 4.08196 65.343 20.4834 11.2553 28.7808 1.42272e-005 1.69058e-005 -1.48168 7.94922 -91.995 10.8412 -4.27193 -5.04057 -0.831857 -4.49009 -4.84776 -23.3126 -2.55815 -6.09007 -3.30002 -2.55819 -6.09013 136.187 -59.9532 -36.0931 26.1381 -39.7406 -23.4224 -52.0355 22.5284 -111.534 35.3833 3.83197 6.74247 -79.949 -15.9245 91.6098 -21.8806 7.73174 -57.5998 -3.85228 -2.24016 -80.2005 -49.6337 21.0418 -50.2325 79.8068 16.21 -7.66262 -51.4166 20.4613 1.83418 
